<svg xmlns="http://www.w3.org/2000/svg" width="23" height="16" fill="none" viewBox="0 0 23 16">
    <path fill="#306BA8" d="M11.097 0c1.65 0 3.305.627 4.564 1.887a6.426 6.426 0 0 1 1.847 3.815A5.161 5.161 0 0 1 17.032 16H4.387A4.377 4.377 0 0 1 0 11.613a4.377 4.377 0 0 1 4.387-4.387h.307A6.452 6.452 0 0 1 6.54 1.887 6.416 6.416 0 0 1 11.097 0zm0 5.42a.516.516 0 0 0-.516.515v5.549L8.605 9.685c-.2-.182-.542-.16-.734.033-.199.199-.162.552.04.734l2.839 2.58a.45.45 0 0 0 .347.13.561.561 0 0 0 .347-.13l2.838-2.58a.53.53 0 0 0 .04-.734.54.54 0 0 0-.733-.033l-1.976 1.799V5.935a.516.516 0 0 0-.516-.516z"/>
</svg>
