<svg width="28" height="28" viewBox="0 0 28 28" fill="none" xmlns="http://www.w3.org/2000/svg">
<circle cx="14" cy="14" r="13.5" stroke="#306BA8"/>
<path d="M9.75586 8.81836C10.2012 8.37305 10.7607 8.00391 11.4346 7.71094C12.1143 7.41211 12.876 7.2627 13.7197 7.2627C14.9443 7.2627 15.8525 7.53223 16.4443 8.07129C17.0361 8.60449 17.332 9.375 17.332 10.3828C17.332 11.4023 17.0332 12.2695 16.4355 12.9844C15.8438 13.6934 15.0146 14.3496 13.9482 14.9531L13.8955 17.5635H13.0166L12.9463 14.5049C13.4619 14.1826 13.9189 13.8721 14.3174 13.5732C14.7217 13.2686 15.0645 12.958 15.3457 12.6416C15.627 12.3193 15.8408 11.9854 15.9873 11.6396C16.1396 11.2939 16.2158 10.916 16.2158 10.5059C16.2158 9.73828 15.9814 9.18164 15.5127 8.83594C15.0498 8.48438 14.4141 8.30859 13.6055 8.30859C12.8965 8.30859 12.2637 8.4375 11.707 8.69531C11.1504 8.95312 10.6436 9.28711 10.1865 9.69727L9.75586 8.81836ZM12.6562 20.4023C12.6562 19.875 12.9375 19.6113 13.5 19.6113C14.0391 19.6113 14.3086 19.875 14.3086 20.4023C14.3086 20.918 14.0391 21.1758 13.5 21.1758C13.2129 21.1758 12.999 21.1172 12.8584 21C12.7236 20.877 12.6562 20.6777 12.6562 20.4023Z" fill="#306BA8"/>
</svg>
