<svg xmlns="http://www.w3.org/2000/svg" width="80" height="80" fill="none" viewBox="0 0 80 80">
    <path fill="#000" fill-opacity="0" d="M3 3h74v74H3z"/>
    <path fill="#306BA8" d="M3.783 57.002a3 3 0 1 0 5.43-2.553l-5.43 2.553zM27.251 71.53a3 3 0 1 0-2.252 5.561l2.252-5.561zM74 40c0 18.778-15.222 34-34 34v6c22.091 0 40-17.909 40-40h-6zM6 40C6 21.222 21.222 6 40 6V0C17.909 0 0 17.909 0 40h6zM40 6c18.778 0 34 15.222 34 34h6C80 17.909 62.091 0 40 0v6zM9.213 54.449A33.858 33.858 0 0 1 6 40H0a39.858 39.858 0 0 0 3.783 17.002l5.43-2.553zM40 74c-4.514 0-8.816-.878-12.75-2.47L25 77.09A39.896 39.896 0 0 0 40 80v-6z"/>
</svg>
